<?xml version="1.0" encoding="UTF-8" standalone="no"?>
<!DOCTYPE svg PUBLIC "-//W3C//DTD SVG 1.1//EN" "http://www.w3.org/Graphics/SVG/1.1/DTD/svg11.dtd">
<svg width="261.00" height="212.40" viewBox="0.00 0.00 725.00 590.00" xmlns="http://www.w3.org/2000/svg" xmlns:xlink="http://www.w3.org/1999/xlink">
<g stroke-linecap="round" id="Folder_2_2">
<path d="M179.67,15.45 C181.16,15.37 259.42,14.84 291.48,14.68 C331.63,14.61 410.17,14.57 448.56,14.61 C479.01,14.80 521.69,15.13 533.93,15.28 C544.48,15.44 554.02,16.01 564.10,17.59 C570.95,18.68 587.52,22.98 590.90,24.38 C597.36,27.09 611.46,36.75 615.20,40.99 C619.76,46.20 627.17,56.92 631.21,64.73 C634.90,71.92 638.57,83.07 641.14,92.70 C643.11,100.44 644.24,110.16 644.23,117.42 C644.27,141.54 644.34,198.70 644.37,231.75 C644.40,273.18 644.43,352.34 644.42,390.07 C644.40,405.69 644.35,434.78 644.32,448.24 C644.28,459.54 644.26,483.52 641.48,500.11 C640.77,504.23 635.99,520.09 632.61,526.46 C630.27,530.82 620.42,545.16 615.40,550.37 C609.92,555.98 598.11,563.47 588.93,568.23 C582.43,571.56 570.69,574.30 563.23,575.73 C553.77,577.51 546.25,577.90 536.05,577.96 C510.02,578.07 449.24,578.24 414.48,578.29 C372.66,578.30 294.86,578.25 258.89,578.20 C231.49,578.10 185.62,577.88 178.45,577.30 C173.63,576.89 157.79,574.55 151.41,573.01 C147.92,572.13 141.81,569.83 138.48,568.03 C131.92,564.42 117.92,555.72 113.33,551.57 C109.03,547.61 98.42,533.28 95.06,526.46 C92.30,520.79 86.34,502.08 85.75,498.69 C85.01,493.21 83.47,482.78 83.42,475.11 C83.35,450.62 83.22,392.86 83.17,359.60 C83.14,318.12 83.14,238.86 83.16,201.09 C83.23,171.91 83.35,131.37 83.41,120.01 C83.48,111.61 85.01,100.07 86.76,91.77 C89.47,80.12 91.62,72.80 95.75,65.33 C97.70,61.85 102.09,54.91 104.48,51.56 C106.77,48.37 111.87,42.81 114.65,40.41 C120.91,35.04 133.01,27.86 139.46,24.75 C145.66,21.80 159.47,17.91 166.04,16.91 C169.95,16.33 178.13,15.54 179.67,15.45 Z" fill="none" stroke="rgb(0, 0, 0)" stroke-width="4.11" stroke-opacity="1.00" stroke-linejoin="round"/>
<path d="M174.69,76.84 C176.19,76.69 265.72,76.57 304.53,76.63 C336.93,76.72 395.73,76.90 422.14,76.99 C454.32,76.76 543.13,76.37 551.40,77.32 C556.00,77.87 562.00,79.51 564.87,80.82 C568.16,82.38 571.91,85.36 574.30,88.57 C575.22,89.84 579.23,96.20 580.73,99.36 C582.07,102.30 582.85,108.34 582.91,113.12 C582.89,130.38 582.85,150.40 582.83,153.16 C563.26,163.43 518.07,187.14 492.45,200.59 C460.80,217.20 391.54,253.54 353.94,273.27 C317.75,292.26 251.42,327.07 221.27,342.89 C197.17,355.53 158.94,375.59 144.83,383.00 C144.85,357.57 144.89,293.01 144.92,253.89 C144.90,220.43 144.69,155.61 144.50,124.26 C144.66,117.19 145.61,105.10 147.62,97.95 C148.96,93.36 151.38,88.91 154.52,86.03 C158.00,82.93 161.91,80.50 166.12,78.83 C168.13,78.05 172.32,77.09 174.69,76.84 Z" fill="none" stroke="rgb(0, 0, 0)" stroke-width="4.11" stroke-opacity="1.00" stroke-linejoin="round"/>
<path d="M268.76,129.93 C268.76,129.93 343.89,130.18 343.89,130.18 C343.89,130.18 376.07,247.57 376.07,247.57 C351.22,260.70 290.77,292.65 255.16,311.46 C242.22,318.30 223.29,328.30 217.32,331.46 C223.97,305.39 240.74,239.68 250.87,200.03 C258.53,170.02 267.48,134.97 268.76,129.93 Z" fill="none" stroke="rgb(0, 0, 0)" stroke-width="4.11" stroke-opacity="1.00" stroke-linejoin="round"/>
<path d="M451.63,130.19 C451.63,130.19 526.42,129.92 526.42,129.92 C526.42,129.92 526.42,169.12 526.42,169.12 C526.42,169.12 451.24,206.51 451.24,206.51 C451.24,206.51 451.63,130.19 451.63,130.19 Z" fill="none" stroke="rgb(0, 0, 0)" stroke-width="4.11" stroke-opacity="1.00" stroke-linejoin="round"/>
<path d="M581.17,236.11 C581.02,236.15 516.55,269.76 491.01,283.12 C459.48,299.70 390.52,336.02 353.09,355.76 C317.08,374.78 251.06,409.63 221.06,425.47 C197.07,438.14 159.03,458.22 144.99,465.64 C144.73,477.71 144.80,490.13 146.71,495.11 C147.93,498.17 152.26,504.20 154.60,506.77 C157.66,510.08 161.70,512.82 165.24,514.08 C170.88,515.99 179.74,516.51 189.98,516.57 C215.99,516.67 276.63,516.81 311.26,516.85 C353.49,516.83 432.92,516.77 470.13,516.73 C498.57,516.66 548.51,516.51 548.89,516.51 C551.93,516.54 558.59,515.66 561.40,514.61 C564.40,513.45 571.27,508.19 572.93,506.74 C576.39,503.66 579.13,499.72 580.42,496.09 C582.29,490.61 582.86,481.16 582.98,471.42 C582.98,440.21 582.88,373.95 582.79,338.89 C582.74,303.30 582.83,241.59 583.10,239.45 C583.39,237.07 582.71,235.86 581.17,236.11 Z" fill="none" stroke="rgb(0, 0, 0)" stroke-width="4.11" stroke-opacity="1.00" stroke-linejoin="round"/>
<path d="M525.80,279.44 C525.85,306.34 525.96,373.39 526.03,413.54 C526.08,441.50 526.13,470.64 526.13,471.82 C526.13,471.82 451.54,472.09 451.54,472.09 C451.56,442.98 451.62,376.44 451.66,339.00 C451.66,332.72 451.67,322.62 451.67,318.79 C451.67,318.79 525.80,279.44 525.80,279.44 Z" fill="none" stroke="rgb(0, 0, 0)" stroke-width="4.11" stroke-opacity="1.00" stroke-linejoin="round"/>
<path d="M399.30,345.62 C399.30,345.62 331.02,383.18 331.02,383.18 C331.02,383.18 352.85,471.71 352.85,471.71 C352.85,471.71 431.99,471.71 431.99,471.71 C424.17,441.52 408.12,379.65 399.90,347.95 C399.70,347.17 399.50,346.39 399.30,345.62 Z" fill="none" stroke="rgb(0, 0, 0)" stroke-width="4.11" stroke-opacity="1.00" stroke-linejoin="round"/>
<path d="M275.77,410.89 C275.77,410.89 262.68,471.83 262.68,471.83 C262.68,471.83 182.99,472.30 182.99,472.30 C182.99,472.30 184.40,458.47 184.40,458.47 C184.40,458.47 275.77,410.89 275.77,410.89 Z" fill="none" stroke="rgb(0, 0, 0)" stroke-width="4.11" stroke-opacity="1.00" stroke-linejoin="round"/>
</g>
</svg>
